<svg height="512pt" viewBox="0 0 512 512" width="512pt" xmlns="http://www.w3.org/2000/svg"><path d="m0 259v243c0 5.523438 4.476562 10 10 10h95v-273h-85c-11.046875 0-20 8.953125-20 20zm35 40c0-8.285156 6.714844-15 15-15s15 6.714844 15 15v76c0 8.285156-6.714844 15-15 15s-15-6.714844-15-15zm0 0"/><path d="m492 239h-85v273h95c5.523438 0 10-4.476562 10-10v-243c0-11.046875-8.953125-20-20-20zm-15 136c0 8.285156-6.714844 15-15 15s-15-6.714844-15-15v-76c0-8.285156 6.714844-15 15-15s15 6.714844 15 15zm0 0"/><path d="m356.917969 0h-201.835938c-11.089843 0-20.082031 8.992188-20.082031 20.082031v491.917969h71v-135c0-11.046875 8.953125-20 20-20h60c11.046875 0 20 8.953125 20 20v135h71v-491.917969c0-11.089843-8.992188-20.082031-20.082031-20.082031zm-146.917969 282c0 8.285156-6.714844 15-15 15s-15-6.714844-15-15v-76c0-8.285156 6.714844-15 15-15s15 6.714844 15 15zm0-146c0 8.285156-6.714844 15-15 15s-15-6.714844-15-15v-76c0-8.285156 6.714844-15 15-15s15 6.714844 15 15zm61 146c0 8.285156-6.714844 15-15 15s-15-6.714844-15-15v-76c0-8.285156 6.714844-15 15-15s15 6.714844 15 15zm0-146c0 8.285156-6.714844 15-15 15s-15-6.714844-15-15v-76c0-8.285156 6.714844-15 15-15s15 6.714844 15 15zm61 146c0 8.285156-6.714844 15-15 15s-15-6.714844-15-15v-76c0-8.285156 6.714844-15 15-15s15 6.714844 15 15zm0-146c0 8.285156-6.714844 15-15 15s-15-6.714844-15-15v-76c0-8.285156 6.714844-15 15-15s15 6.714844 15 15zm0 0"/></svg>